<svg xmlns="http://www.w3.org/2000/svg" xml:space="preserve" width="2000" height="208" data-id="lg_f04gUAWDz3vOgAsCoT" data-version="1" viewBox="0 0 2000 208"><g data-padding="20"><g transform="translate(10 3.714)scale(.96429)"><rect width="582.947" height="217.129" x="486.304" y="-109.179" fill="none" rx="0" ry="0" transform="matrix(.96 0 0 .96 280 104.59)"/><path fill="#263aff" d="M835.376 88.43h-31.62q-4.73-8.55-15.71-26.18l-11.78 11.68v14.5h-25.07q.8-19.53.8-36.55t-.8-36.55h25.07v29.5q18.53-18.32 26.38-29.5h32.63l-31.72 31.42q7.05 9.86 15.86 21.44t15.96 20.24m66.55-73.1v20.04q-11.99-.61-17.73-.71V69.1q5.84-.1 17.73-.7v20.03h-58.51V68.4q11.58.6 17.63.7V34.66q-6.05.1-17.63.71V15.33Zm67.87.1h24.67q-.7 17.02-.7 36.45 0 19.54.7 36.55h-36.04l-24.37-54.97 1.81 54.97h-25.88q.81-19.53.81-36.55 0-16.91-.81-36.45h37.06l24.47 56.49Zm77.54 74.01q-23.06 0-33.93-10.02-10.88-10.02-10.88-28.14 0-17.93 10.82-27.99 10.83-10.07 33.99-10.07 23.26 0 34.08 10.07 10.83 10.06 10.83 27.99 0 18.22-10.78 28.19-10.77 9.97-34.13 9.97m0-20.54q11.18 0 16.11-4.28t4.93-13.34q0-8.86-4.93-13.19t-16.11-4.33q-11.08 0-16.01 4.33-4.94 4.33-4.94 13.19 0 8.96 4.94 13.29 4.93 4.33 16.01 4.33m-211.96 113.98h-31.62q-4.73-8.56-15.71-26.19l-11.78 11.69v14.5h-25.07q.8-19.54.8-36.56 0-17.01-.8-36.55h25.07v29.5q18.53-18.32 26.38-29.5h32.63l-31.72 31.42q7.05 9.87 15.86 21.45t15.96 20.24m31.82-28.9v10.47q38.26-.2 55.48-1.11-.71 4.13-.86 8.51t-.15 11.03h-78.24q.81-19.54.81-36.56 0-17.01-.81-36.55h78.24V128h-54.47v9.66q4.83.1 14.3.1 16.01 0 33.12-.6v17.32q-17.11-.6-33.12-.6-9.47 0-14.3.1m87.3 0v10.47q38.26-.2 55.48-1.11-.7 4.13-.85 8.51-.16 4.38-.16 11.03h-78.23q.8-19.54.8-36.56 0-17.01-.8-36.55h78.23V128h-54.47v9.66q4.83.1 14.3.1 16.01 0 33.13-.6v17.32q-17.12-.6-33.13-.6-9.47 0-14.3.1m88.31-44.11h20.94q20.04 0 27.89 7.1 7.86 7.1 7.86 19.99 0 8.86-3.12 15.05-3.12 6.2-10.98 9.67-7.85 3.47-21.65 3.47h-20.94v17.73h-24.77q.8-19.54.8-36.56 0-17.01-.8-36.55h24.77Zm0 35.85h13.89q8.36 0 12.54-.66 4.18-.65 5.84-2.36t1.66-5.04q0-3.32-1.56-4.98t-5.74-2.27q-4.18-.6-12.74-.6h-13.89Zm88.51 8.26v10.47q38.26-.2 55.48-1.11-.7 4.13-.86 8.51-.15 4.38-.15 11.03h-78.24q.81-19.54.81-36.56 0-17.01-.81-36.55h78.24V128h-54.47v9.66q4.83.1 14.3.1 16.01 0 33.12-.6v17.32q-17.11-.6-33.12-.6-9.47 0-14.3.1m144.38-19.84q0 8.76-4.28 14.8t-14.65 8.76q1.21 1.61 1.71 2.52l16.32 22.66h-27.39q-4.43-8.26-14-23.37h-14.8v23.37h-23.76q.8-19.54.8-36.56 0-17.01-.8-36.55h23.76v.1h20.64q20.34 0 28.4 6.55 8.05 6.54 8.05 17.72m-43.5-4.93h-13.59v11.47h13.59q8.56 0 12.94-.55t6.09-1.76q1.72-1.21 1.72-3.53 0-2.21-1.61-3.42-1.62-1.21-6.05-1.71t-13.09-.5"/></g><path fill="transparent" stroke="transparent" d="M720 0h560v208H720z"/></g></svg>